<svg width="100" height="100" viewBox="0 0 100 100" fill="none" xmlns="http://www.w3.org/2000/svg">
<circle cx="50" cy="50" r="50" fill="white"/>
<circle cx="50" cy="50" r="50" fill="white"/>
<path fill-rule="evenodd" clip-rule="evenodd" d="M66.8751 26.203C68.1551 25.4647 69.1423 24.4755 69.743 23.4375H79.8828L71.1432 64.7482H58.938L65.4533 34.1796H62.0952L63.5144 27.2843C64.5909 27.2023 65.76 26.8461 66.8751 26.203ZM35.2977 68.0764C32.92 68.0764 31.9111 65.9167 31.9111 62.5327C31.9111 56.3408 35.4417 42.1574 40.9884 42.1574C43.3665 42.1574 44.7761 45.0094 43.912 49.0417L41.5348 60.4172C40.5263 65.1683 38.2514 68.0764 35.2977 68.0764ZM53.0204 62.2449C53.0204 61.8849 53.0921 61.5244 53.1644 61.1649L61.0892 23.5095H49.3088L46.2531 37.9926C45.3258 35.4157 42.6524 32.896 39.3198 32.896C29.3062 32.896 20.3125 46.6931 20.3125 62.1731C20.3125 71.7482 24.5627 77.1479 31.4068 77.1479C36.4502 77.1479 39.5479 74.1961 41.4931 70.7403H41.6061C43.3385 74.9221 47.426 76.8397 52.6533 77.1123L55.2808 64.6669C53.8831 64.4181 53.0204 63.6713 53.0204 62.2449ZM64.7573 66.588C61.8393 66.588 59.4735 68.9519 59.4735 71.8684C59.4735 74.7846 61.8393 77.1484 64.7573 77.1484C67.6753 77.1484 70.0411 74.7846 70.0411 71.8684C70.0411 68.9519 67.6753 66.588 64.7573 66.588Z" fill="#4C1D80"/>
</svg>